<?xml version="1.0" standalone="no"?>
<!DOCTYPE svg PUBLIC "-//W3C//DTD SVG 20010904//EN" "http://www.w3.org/TR/2001/REC-SVG-20010904/DTD/svg10.dtd">
<svg version="1.0" xmlns="http://www.w3.org/2000/svg" width="512.000000pt" height="512.000000pt"
  viewBox="0 0 512.000000 512.000000" preserveAspectRatio="xMidYMid meet">
  <metadata>
    Created by potrace 1.16, written by Peter Selinger 2001-2019
  </metadata>
  <g transform="translate(0.000000,512.000000) scale(0.100000,-0.100000)" fill="#37bd6b">
    <path d="M2270 4964 c-226 -59 -417 -260 -465 -489 -23 -110 -20 -171 10 -200
16 -17 35 -25 60 -25 l35 0 0 -78 c0 -146 51 -271 151 -371 59 -59 143 -110
217 -132 l44 -13 -7 -40 c-15 -88 -24 -174 -25 -226 l-1 -55 -66 -55 c-134
-113 -99 -101 -347 -121 l-221 -19 -285 95 c-343 114 -387 119 -425 45 -12
-23 -15 -75 -15 -270 0 -284 -1 -280 99 -280 l59 0 -69 -237 c-38 -131 -69
-248 -69 -259 0 -38 37 -74 76 -74 62 0 72 21 154 307 l75 263 101 0 101 0
-27 -93 c-170 -570 -144 -1059 85 -1648 30 -78 55 -143 55 -145 0 -2 -26 -4
-58 -4 l-58 0 -277 310 c-152 170 -277 317 -277 326 0 9 25 101 55 205 30 103
55 201 55 217 0 67 -83 103 -130 56 -12 -12 -42 -95 -78 -219 l-58 -199 -94
-13 c-114 -15 -171 -33 -273 -86 -186 -96 -359 -325 -374 -498 -5 -52 -4 -57
22 -77 15 -12 35 -22 44 -22 9 0 33 -5 54 -11 l37 -10 0 -66 c0 -200 130 -408
311 -497 174 -85 353 -85 529 0 97 48 204 153 246 242 28 59 30 62 59 57 105
-20 113 -19 143 11 18 19 31 44 35 72 l7 42 778 0 777 0 27 -88 c60 -196 211
-353 408 -423 56 -20 84 -24 200 -24 162 0 241 21 354 95 132 86 243 242 276
388 l12 52 44 0 c64 0 108 21 124 60 12 28 11 48 0 129 -8 53 -12 130 -10 171
3 41 5 154 4 250 -1 187 -13 255 -68 392 l-25 61 30 35 c44 50 49 70 49 207
l0 123 223 4 c249 4 276 10 350 84 75 76 72 47 72 634 0 586 3 559 -72 633
-74 75 -50 72 -613 75 -332 2 -517 -1 -541 -7 -61 -18 -124 -75 -156 -138
l-28 -58 -3 -532 -3 -533 -155 0 c-145 0 -156 1 -149 17 14 38 17 225 6 376
-37 508 -182 880 -433 1112 -52 48 -69 70 -62 79 115 153 163 291 164 472 0
186 -62 337 -195 470 -64 66 -96 89 -165 122 -47 22 -109 45 -138 51 -73 15
-236 13 -302 -5z m299 -163 c115 -36 232 -135 287 -242 96 -190 62 -441 -81
-597 -42 -47 -113 -102 -130 -102 -3 0 -5 97 -5 215 0 241 -5 266 -61 306 -34
24 -36 24 -328 27 l-293 3 7 37 c18 99 108 229 203 294 109 75 272 99 401 59z
m-89 -770 c0 -251 6 -237 -98 -221 -165 27 -297 166 -310 326 -2 34 -2 74 2
88 l6 26 200 0 200 0 0 -219z m331 -337 c237 -174 403 -579 432 -1051 l3 -63
-338 0 c-186 0 -338 2 -338 4 0 2 -13 55 -30 117 -16 63 -30 123 -30 134 0 15
31 40 113 92 194 124 253 204 245 331 -2 37 -12 83 -22 103 -22 47 -78 103
-125 125 -51 25 -166 30 -215 10 -22 -9 -41 -14 -44 -11 -6 6 16 136 26 151 4
5 41 18 82 27 41 10 98 28 125 41 28 14 54 25 59 25 4 1 30 -15 57 -35z m2092
-327 c48 -31 61 -62 65 -158 l4 -89 -556 0 -556 0 0 69 c0 85 7 120 29 149 37
49 62 52 541 49 407 -2 448 -4 473 -20z m-2227 -51 c26 -26 34 -42 34 -71 0
-54 -56 -105 -264 -239 l-179 -116 -148 0 -149 0 0 59 0 58 101 8 101 7 172
147 c209 179 211 181 259 181 31 0 46 -7 73 -34z m-1222 -296 c-4 -8 -9 -41
-12 -72 l-4 -58 -174 0 -174 0 0 134 0 134 185 -61 c149 -50 184 -65 179 -77z
m356 -80 l0 -50 -105 0 -105 0 0 28 c0 15 4 34 9 41 10 16 72 27 154 30 l47 1
0 -50z m3160 -55 l0 -75 -555 0 -555 0 0 75 0 75 555 0 555 0 0 -75z m-2600
-177 c6 -24 18 -65 26 -92 8 -27 13 -50 11 -51 -1 -1 -33 -17 -72 -35 -97 -46
-190 -140 -237 -240 -65 -137 -71 -173 -75 -496 l-5 -290 -41 -11 c-58 -16
-122 -65 -158 -121 -31 -49 -59 -129 -59 -169 0 -22 -3 -23 -75 -23 -41 0 -75
2 -75 5 0 3 -16 60 -35 125 -120 413 -124 763 -15 1190 16 63 38 140 48 170
l19 55 349 3 c212 1 352 6 358 12 18 18 25 11 36 -32z m2598 -202 c-3 -127 -5
-148 -24 -173 -47 -64 -38 -63 -586 -63 l-498 0 0 190 0 190 556 0 556 0 -4
-144z m-1722 -128 c-13 -82 -31 -123 -71 -163 -61 -61 -89 -67 -355 -74 -251
-7 -268 -11 -317 -63 -51 -54 -57 -87 -61 -335 l-4 -233 -129 0 -129 0 0 238
c0 130 5 265 10 300 22 132 80 240 164 303 88 66 97 68 520 68 l379 1 -7 -42z
m1064 -376 c0 -71 -4 -112 -12 -120 -9 -9 -113 -12 -408 -12 -385 0 -397 -1
-418 -20 -33 -31 -30 -92 4 -119 26 -20 38 -21 389 -21 l363 0 30 -72 c43
-103 61 -180 68 -278 l6 -85 -46 52 c-100 112 -276 214 -426 248 -167 37 -378
15 -528 -55 -243 -114 -424 -350 -464 -605 l-12 -75 -552 0 -552 0 -36 84
c-20 47 -36 87 -36 90 0 3 177 6 393 7 440 1 468 4 504 58 23 33 23 38 23 332
l0 299 310 0 311 0 24 25 c33 32 33 78 0 110 l-24 25 -311 0 -310 0 6 43 c4
23 11 48 17 55 7 9 61 12 206 12 132 0 218 5 264 15 74 15 153 54 188 91 l22
24 504 0 503 0 0 -108z m-475 -588 c219 -53 400 -225 470 -447 14 -43 25 -89
25 -103 l0 -24 -656 0 -656 0 7 42 c37 216 200 418 410 505 44 19 110 35 185
47 39 6 149 -4 215 -20z m-2790 -360 c154 -173 282 -319 283 -324 2 -6 0 -10
-5 -10 -14 0 -1136 260 -1141 264 -2 3 11 33 29 68 43 82 164 203 246 246 75
40 190 71 258 71 l50 0 280 -315z m1395 211 l0 -85 -260 0 c-294 0 -280 -5
-237 80 14 30 36 53 62 67 38 21 52 23 238 23 l197 0 0 -85z m-1725 -572 c209
-47 384 -90 389 -94 14 -12 -39 -93 -91 -139 -167 -149 -412 -142 -571 17 -65
65 -112 160 -119 243 -3 33 -2 60 3 60 5 0 180 -39 389 -87z m3434 -45 c-35
-123 -142 -246 -261 -303 -264 -125 -562 8 -664 297 l-13 38 474 0 474 0 -10
-32z" />
  </g>
</svg>