<svg xmlns="http://www.w3.org/2000/svg" xmlns:xlink="http://www.w3.org/1999/xlink" version="1.1" width="256" height="256" viewBox="0 0 256 256" xml:space="preserve">
<desc>Created with Fabric.js 1.7.22</desc>
<defs>
</defs>
<g transform="translate(128 128) scale(0.71 0.71)" style="">
	<g style="stroke: none; stroke-width: 0; stroke-dasharray: none; stroke-linecap: butt; stroke-linejoin: miter; stroke-miterlimit: 10; fill: rgb(229,229,254); fill-rule: nonzero; opacity: 1;" transform="translate(-175.05 -175.05) scale(3.89 3.89)" >
	<circle cx="45" cy="45" r="45" style="stroke: none; stroke-width: 1; stroke-dasharray: none; stroke-linecap: butt; stroke-linejoin: miter; stroke-miterlimit: 10; fill: rgb(229,229,254); fill-rule: nonzero; opacity: 1;" transform="  matrix(1 0 0 1 0 0) "/>
</g>
	<g style="stroke: none; stroke-width: 0; stroke-dasharray: none; stroke-linecap: butt; stroke-linejoin: miter; stroke-miterlimit: 10; fill: none; fill-rule: nonzero; opacity: 1;" transform="translate(0 -177.55451275594208) rotate(45) scale(2.79 2.79)" >
	<path d="M 44.93 90 c -0.384 0 -0.769 -0.146 -1.062 -0.439 c -0.587 -0.586 -0.587 -1.535 0 -2.121 L 86.373 45 L 43.867 2.561 c -0.587 -0.585 -0.587 -1.536 0 -2.121 c 0.587 -0.586 1.538 -0.586 2.124 0 l 43.568 43.5 c 0.587 0.585 0.587 1.536 0 2.121 l -43.568 43.5 C 45.698 89.854 45.314 90 44.93 90 z" style="stroke: none; stroke-width: 1; stroke-dasharray: none; stroke-linecap: butt; stroke-linejoin: miter; stroke-miterlimit: 10; fill: rgb(89,88,250); fill-rule: nonzero; opacity: 1;" transform=" matrix(1 0 0 1 0 0) " stroke-linecap="round" />
	<path d="M 88.498 46.5 H 1.502 C 0.672 46.5 0 45.829 0 45 s 0.672 -1.5 1.502 -1.5 h 86.995 C 89.327 43.5 90 44.171 90 45 S 89.327 46.5 88.498 46.5 z" style="stroke: none; stroke-width: 1; stroke-dasharray: none; stroke-linecap: butt; stroke-linejoin: miter; stroke-miterlimit: 10; fill: rgb(89,88,250); fill-rule: nonzero; opacity: 1;" transform=" matrix(1 0 0 1 0 0) " stroke-linecap="round" />
</g>
</g>
</svg>